<svg width="28" height="28" viewBox="0 0 28 28" fill="none" xmlns="http://www.w3.org/2000/svg">
<path opacity="0.2" d="M24.5 6.125H3.5C3.26794 6.125 3.04538 6.21719 2.88128 6.38128C2.71719 6.54538 2.625 6.76794 2.625 7V21C2.625 21.2321 2.71719 21.4546 2.88128 21.6187C3.04538 21.7828 3.26794 21.875 3.5 21.875H10.138C10.3697 21.8749 10.592 21.7828 10.7559 21.6191L13.3809 18.9941C13.4622 18.9127 13.5587 18.8482 13.6649 18.8041C13.7712 18.7601 13.885 18.7374 14 18.7374C14.115 18.7374 14.2288 18.7601 14.3351 18.8041C14.4413 18.8482 14.5378 18.9127 14.6191 18.9941L17.2441 21.6191C17.408 21.7828 17.6303 21.8749 17.862 21.875H24.5C24.7321 21.875 24.9546 21.7828 25.1187 21.6187C25.2828 21.4546 25.375 21.2321 25.375 21V7C25.375 6.76794 25.2828 6.54538 25.1187 6.38128C24.9546 6.21719 24.7321 6.125 24.5 6.125ZM8.75 16.625C8.23082 16.625 7.72331 16.471 7.29163 16.1826C6.85995 15.8942 6.5235 15.4842 6.32482 15.0045C6.12614 14.5249 6.07415 13.9971 6.17544 13.4879C6.27673 12.9787 6.52673 12.511 6.89384 12.1438C7.26096 11.7767 7.72869 11.5267 8.23789 11.4254C8.74709 11.3242 9.27489 11.3761 9.75454 11.5748C10.2342 11.7735 10.6442 12.1099 10.9326 12.5416C11.221 12.9733 11.375 13.4808 11.375 14C11.375 14.6962 11.0984 15.3639 10.6062 15.8562C10.1139 16.3484 9.44619 16.625 8.75 16.625ZM19.25 16.625C18.7308 16.625 18.2233 16.471 17.7916 16.1826C17.36 15.8942 17.0235 15.4842 16.8248 15.0045C16.6261 14.5249 16.5742 13.9971 16.6754 13.4879C16.7767 12.9787 17.0267 12.511 17.3938 12.1438C17.761 11.7767 18.2287 11.5267 18.7379 11.4254C19.2471 11.3242 19.7749 11.3761 20.2545 11.5748C20.7342 11.7735 21.1442 12.1099 21.4326 12.5416C21.721 12.9733 21.875 13.4808 21.875 14C21.875 14.6962 21.5984 15.3639 21.1062 15.8562C20.6139 16.3484 19.9462 16.625 19.25 16.625Z" fill="#091E42"/>
<path d="M24.5 5.25H3.5C3.03587 5.25 2.59075 5.43437 2.26256 5.76256C1.93437 6.09075 1.75 6.53587 1.75 7V21C1.75 21.4641 1.93437 21.9092 2.26256 22.2374C2.59075 22.5656 3.03587 22.75 3.5 22.75H10.138C10.3679 22.7507 10.5956 22.7058 10.808 22.6177C11.0203 22.5296 11.2131 22.4002 11.375 22.237L14 19.612L16.625 22.237C16.787 22.4001 16.9798 22.5294 17.1921 22.6174C17.4045 22.7055 17.6322 22.7506 17.862 22.75H24.5C24.9641 22.75 25.4092 22.5656 25.7374 22.2374C26.0656 21.9092 26.25 21.4641 26.25 21V7C26.25 6.53587 26.0656 6.09075 25.7374 5.76256C25.4092 5.43437 24.9641 5.25 24.5 5.25ZM24.5 21H17.862L15.237 18.375C14.9089 18.0471 14.4639 17.8628 14 17.8628C13.5361 17.8628 13.0911 18.0471 12.763 18.375L10.138 21H3.5V7H24.5V21ZM8.75 17.5C9.44223 17.5 10.1189 17.2947 10.6945 16.9101C11.2701 16.5256 11.7187 15.9789 11.9836 15.3394C12.2485 14.6998 12.3178 13.9961 12.1827 13.3172C12.0477 12.6382 11.7144 12.0146 11.2249 11.5251C10.7354 11.0356 10.1117 10.7023 9.43282 10.5673C8.75388 10.4322 8.05015 10.5015 7.41061 10.7664C6.77107 11.0313 6.22444 11.4799 5.83986 12.0555C5.45527 12.6311 5.25 13.3078 5.25 14C5.25 14.9283 5.61875 15.8185 6.27513 16.4749C6.9315 17.1312 7.82174 17.5 8.75 17.5ZM8.75 12.25C9.09612 12.25 9.43446 12.3526 9.72225 12.5449C10.01 12.7372 10.2343 13.0105 10.3668 13.3303C10.4992 13.6501 10.5339 14.0019 10.4664 14.3414C10.3989 14.6809 10.2322 14.9927 9.98744 15.2374C9.74269 15.4822 9.43087 15.6488 9.09141 15.7164C8.75194 15.7839 8.40007 15.7492 8.0803 15.6168C7.76053 15.4843 7.48722 15.26 7.29493 14.9722C7.10264 14.6845 7 14.3461 7 14C7 13.5359 7.18437 13.0908 7.51256 12.7626C7.84075 12.4344 8.28587 12.25 8.75 12.25ZM19.25 17.5C19.9422 17.5 20.6189 17.2947 21.1945 16.9101C21.7701 16.5256 22.2187 15.9789 22.4836 15.3394C22.7485 14.6998 22.8178 13.9961 22.6827 13.3172C22.5477 12.6382 22.2144 12.0146 21.7249 11.5251C21.2354 11.0356 20.6117 10.7023 19.9328 10.5673C19.2539 10.4322 18.5501 10.5015 17.9106 10.7664C17.2711 11.0313 16.7244 11.4799 16.3399 12.0555C15.9553 12.6311 15.75 13.3078 15.75 14C15.75 14.9283 16.1187 15.8185 16.7751 16.4749C17.4315 17.1312 18.3217 17.5 19.25 17.5ZM19.25 12.25C19.5961 12.25 19.9345 12.3526 20.2222 12.5449C20.51 12.7372 20.7343 13.0105 20.8668 13.3303C20.9992 13.6501 21.0339 14.0019 20.9664 14.3414C20.8988 14.6809 20.7322 14.9927 20.4874 15.2374C20.2427 15.4822 19.9309 15.6488 19.5914 15.7164C19.2519 15.7839 18.9001 15.7492 18.5803 15.6168C18.2605 15.4843 17.9872 15.26 17.7949 14.9722C17.6026 14.6845 17.5 14.3461 17.5 14C17.5 13.5359 17.6844 13.0908 18.0126 12.7626C18.3408 12.4344 18.7859 12.25 19.25 12.25Z" fill="#091E42"/>
</svg>
