<svg width="24" height="24" viewBox="0 0 24 24" fill="none" xmlns="http://www.w3.org/2000/svg">
<path d="M12 0.625C9.75024 0.625 7.551 1.29213 5.68039 2.54203C3.80978 3.79193 2.35182 5.56847 1.49088 7.64698C0.629929 9.72548 0.404666 12.0126 0.843573 14.2192C1.28248 16.4257 2.36584 18.4525 3.95667 20.0433C5.54749 21.6342 7.57432 22.7175 9.78085 23.1564C11.9874 23.5953 14.2745 23.3701 16.353 22.5091C18.4315 21.6482 20.2081 20.1902 21.458 18.3196C22.7079 16.449 23.375 14.2498 23.375 12C23.3718 8.98414 22.1724 6.09271 20.0398 3.96018C17.9073 1.82764 15.0159 0.628185 12 0.625ZM9.11579 16.375H14.8842C14.2969 18.3809 13.3125 20.1889 12 21.613C10.6875 20.1889 9.70313 18.3809 9.11579 16.375ZM8.71875 14.625C8.42855 12.887 8.42855 11.113 8.71875 9.375H15.2813C15.5715 11.113 15.5715 12.887 15.2813 14.625H8.71875ZM2.37501 12C2.37424 11.1124 2.49682 10.2289 2.73922 9.375H6.94579C6.68475 11.1153 6.68475 12.8847 6.94579 14.625H2.73922C2.49682 13.7711 2.37424 12.8876 2.37501 12ZM14.8842 7.625H9.11579C9.70313 5.61906 10.6875 3.81109 12 2.38703C13.3125 3.81109 14.2969 5.61906 14.8842 7.625ZM17.0542 9.375H21.2608C21.7464 11.0913 21.7464 12.9087 21.2608 14.625H17.0542C17.3153 12.8847 17.3153 11.1153 17.0542 9.375ZM20.5717 7.625H16.6966C16.25 5.8679 15.5001 4.20227 14.4806 2.70312C15.7831 3.05315 16.9979 3.67188 18.047 4.51955C19.096 5.36721 19.956 6.42504 20.5717 7.625ZM9.51938 2.70312C8.49989 4.20227 7.74998 5.8679 7.30344 7.625H3.42829C4.04399 6.42504 4.90401 5.36721 5.95304 4.51955C7.00207 3.67188 8.21689 3.05315 9.51938 2.70312ZM3.42829 16.375H7.30344C7.74998 18.1321 8.49989 19.7977 9.51938 21.2969C8.21689 20.9469 7.00207 20.3281 5.95304 19.4805C4.90401 18.6328 4.04399 17.575 3.42829 16.375ZM14.4806 21.2969C15.5001 19.7977 16.25 18.1321 16.6966 16.375H20.5717C19.956 17.575 19.096 18.6328 18.047 19.4805C16.9979 20.3281 15.7831 20.9469 14.4806 21.2969Z" fill="#091E42"/>
</svg>
