<svg width="16" height="17" viewBox="0 0 16 17" fill="none" xmlns="http://www.w3.org/2000/svg">
<g opacity="0.8">
<rect width="16" height="16" transform="translate(0 0.810547)" fill="white" fill-opacity="0.01"/>
<path fill-rule="evenodd" clip-rule="evenodd" d="M7.9974 14.1432C6.58291 14.1432 5.22635 13.5813 4.22616 12.5811C3.22597 11.5809 2.66406 10.2244 2.66406 8.8099C2.66406 7.39541 3.22597 6.03885 4.22616 5.03866C5.22635 4.03847 6.58291 3.47656 7.9974 3.47656C9.41188 3.47656 10.7684 4.03847 11.7686 5.03866C12.7688 6.03885 13.3307 7.39541 13.3307 8.8099C13.3307 10.2244 12.7688 11.5809 11.7686 12.5811C10.7684 13.5813 9.41188 14.1432 7.9974 14.1432ZM7.9974 8.47656C7.82058 8.47656 7.65102 8.5468 7.52599 8.67182C7.40097 8.79685 7.33073 8.96642 7.33073 9.14323V10.8099C7.33073 10.9867 7.40097 11.1563 7.52599 11.2813C7.65102 11.4063 7.82058 11.4766 7.9974 11.4766C8.17421 11.4766 8.34378 11.4063 8.4688 11.2813C8.59382 11.1563 8.66406 10.9867 8.66406 10.8099V9.14323C8.66406 8.96642 8.59382 8.79685 8.4688 8.67182C8.34378 8.5468 8.17421 8.47656 7.9974 8.47656ZM7.9974 7.72656C8.24051 7.72656 8.47367 7.62999 8.64558 7.45808C8.81748 7.28617 8.91406 7.05301 8.91406 6.8099C8.91406 6.56678 8.81748 6.33362 8.64558 6.16171C8.47367 5.98981 8.24051 5.89323 7.9974 5.89323C7.75428 5.89323 7.52112 5.98981 7.34921 6.16171C7.17731 6.33362 7.08073 6.56678 7.08073 6.8099C7.08073 7.05301 7.17731 7.28617 7.34921 7.45808C7.52112 7.62999 7.75428 7.72656 7.9974 7.72656Z" fill="#42526E"/>
</g>
</svg>
