<svg width="101" height="100" viewBox="0 0 101 100" fill="none" xmlns="http://www.w3.org/2000/svg">
<g clip-path="url(#clip0_1756_10754)">
<path d="M94.3452 22.507C94.3161 20.2802 92.6025 18.4407 90.3855 18.2373C71.9616 16.514 56.9261 6.6679 51.9692 3.06637C50.9333 2.31121 49.5295 2.31121 48.4936 3.06637C43.5463 6.6679 28.5109 16.514 10.0869 18.2373C7.86987 18.4407 6.16592 20.2802 6.12719 22.507C5.90452 37.0389 8.23777 86.3759 49.1229 97.3549C49.849 97.5485 50.6138 97.5485 51.3399 97.3549C92.225 86.3857 94.5582 37.0389 94.3452 22.507Z" fill="url(#paint0_linear_1756_10754)"/>
<path d="M23.9767 43.1309L28.0312 39.663L21.75 38.8442L23.2788 34.3326L28.7956 37.0941L27.6656 31.25H32.5842L31.4709 36.9496L36.6388 34.2363L38.1675 38.7478L32.7338 39.5024L36.4726 42.858L32.5012 45.6356L30.2413 41.1401L27.9481 45.9085L23.9767 43.1309Z" fill="white"/>
<path d="M44.4186 43.1309L48.3284 39.663L42.2715 38.8442L43.7456 34.3326L49.0654 37.0941L47.9758 31.25H52.7188L51.6452 36.9496L56.6285 34.2363L58.1027 38.7478L52.863 39.5024L56.4683 42.858L52.6387 45.6356L50.4595 41.1401L48.2482 45.9085L44.4186 43.1309Z" fill="white"/>
<path d="M64.4342 43.1309L68.4887 39.663L62.2075 38.8442L63.7363 34.3326L69.2531 37.0941L68.1231 31.25H73.0418L71.9284 36.9496L77.0963 34.2363L78.625 38.7478L73.1913 39.5024L76.9301 42.858L72.9587 45.6356L70.6988 41.1401L68.4056 45.9085L64.4342 43.1309Z" fill="white"/>
</g>
<path d="M38.2668 67.5C37.0754 67.5 35.9802 67.2201 34.9813 66.6603C33.9945 66.1005 33.2062 65.3216 32.6165 64.3237C32.0388 63.3136 31.75 62.1818 31.75 60.9284C31.75 59.6749 32.0388 58.5492 32.6165 57.5513C33.2062 56.5534 33.9945 55.7745 34.9813 55.2147C35.9802 54.6549 37.0754 54.375 38.2668 54.375C39.4583 54.375 40.5474 54.6549 41.5343 55.2147C42.5331 55.7745 43.3154 56.5534 43.881 57.5513C44.4587 58.5492 44.7475 59.6749 44.7475 60.9284C44.7475 62.1818 44.4587 63.3136 43.881 64.3237C43.3034 65.3216 42.5211 66.1005 41.5343 66.6603C40.5474 67.2201 39.4583 67.5 38.2668 67.5ZM38.2668 64.6523C39.2777 64.6523 40.0841 64.3115 40.6858 63.63C41.2996 62.9485 41.6065 62.048 41.6065 60.9284C41.6065 59.7966 41.2996 58.896 40.6858 58.2267C40.0841 57.5452 39.2777 57.2045 38.2668 57.2045C37.2439 57.2045 36.4255 57.5391 35.8117 58.2084C35.21 58.8778 34.9091 59.7844 34.9091 60.9284C34.9091 62.0602 35.21 62.9668 35.8117 63.6483C36.4255 64.3176 37.2439 64.6523 38.2668 64.6523Z" fill="white"/>
<path d="M56.812 54.5575V57.0584H53.4543V67.3722H50.3674V57.0584H47.0097V54.5575H56.812Z" fill="white"/>
<path d="M69.25 58.6831C69.25 59.4254 69.0815 60.1069 68.7445 60.7276C68.4076 61.3361 67.8901 61.8289 67.1921 62.2062C66.494 62.5834 65.6275 62.7721 64.5925 62.7721H62.679V67.3722H59.5921V54.5575H64.5925C65.6035 54.5575 66.4579 54.734 67.156 55.0869C67.854 55.4398 68.3775 55.9266 68.7265 56.5473C69.0755 57.1679 69.25 57.8799 69.25 58.6831ZM64.3579 60.2895C64.9476 60.2895 65.3868 60.1495 65.6757 59.8696C65.9645 59.5897 66.1089 59.1942 66.1089 58.6831C66.1089 58.1719 65.9645 57.7764 65.6757 57.4965C65.3868 57.2166 64.9476 57.0767 64.3579 57.0767H62.679V60.2895H64.3579Z" fill="white"/>
<defs>
<linearGradient id="paint0_linear_1756_10754" x1="-0.36366" y1="92.1149" x2="51.4268" y2="-9.00649" gradientUnits="userSpaceOnUse">
<stop offset="0.2636" stop-color="#C1C7D0"/>
<stop offset="0.8949" stop-color="#F0F2F5"/>
</linearGradient>
<clipPath id="clip0_1756_10754">
<rect width="95" height="95" fill="white" transform="translate(3 2.5)"/>
</clipPath>
</defs>
</svg>
