<svg width="25" height="24" viewBox="0 0 25 24" fill="none" xmlns="http://www.w3.org/2000/svg">
<g clip-path="url(#clip0_1635_8622)">
<path d="M12.5 2.25C10.5716 2.25 8.68657 2.82183 7.08319 3.89317C5.47982 4.96451 4.23013 6.48726 3.49218 8.26884C2.75422 10.0504 2.56114 12.0108 2.93735 13.9021C3.31355 15.7934 4.24215 17.5307 5.60571 18.8943C6.96928 20.2579 8.70656 21.1865 10.5979 21.5627C12.4892 21.9389 14.4496 21.7458 16.2312 21.0078C18.0127 20.2699 19.5355 19.0202 20.6068 17.4168C21.6782 15.8134 22.25 13.9284 22.25 12C22.2473 9.41498 21.2192 6.93661 19.3913 5.10872C17.5634 3.28084 15.085 2.25273 12.5 2.25ZM16.0306 6.96937C15.961 6.89964 15.8783 6.84432 15.7872 6.80658C15.6962 6.76884 15.5986 6.74941 15.5 6.74941C15.4014 6.74941 15.3038 6.76884 15.2128 6.80658C15.1218 6.84432 15.039 6.89964 14.9694 6.96937L8.66469 13.4062C8.4554 13.615 8.28927 13.8629 8.17579 14.1359C8.0623 14.4088 8.0037 14.7014 8.0033 14.997C8.00291 15.2926 8.06075 15.5854 8.1735 15.8586C8.28626 16.1319 8.45173 16.3802 8.66047 16.5895C8.86921 16.7988 9.11713 16.965 9.39008 17.0784C9.66302 17.1919 9.95565 17.2505 10.2512 17.2509C10.5468 17.2513 10.8396 17.1935 11.1129 17.0807C11.3861 16.968 11.6345 16.8025 11.8438 16.5938L16.4675 11.8763C16.5358 11.8032 16.618 11.7446 16.7093 11.7038C16.8006 11.663 16.8991 11.6409 16.9991 11.6387C17.099 11.6366 17.1984 11.6544 17.2914 11.6913C17.3844 11.7281 17.469 11.7831 17.5404 11.8531C17.6118 11.9231 17.6685 12.0067 17.7071 12.0989C17.7457 12.1912 17.7655 12.2902 17.7653 12.3902C17.765 12.4901 17.7448 12.5891 17.7058 12.6811C17.6668 12.7732 17.6098 12.8565 17.5381 12.9263L12.9097 17.6494C12.5633 18.0043 12.1499 18.287 11.6934 18.4811C11.237 18.6751 10.7466 18.7767 10.2506 18.78C9.75468 18.7832 9.263 18.6881 8.80407 18.5C8.34514 18.3119 7.92807 18.0347 7.57702 17.6843C7.22598 17.3339 6.94792 16.9174 6.75895 16.4588C6.56998 16.0003 6.47385 15.5088 6.47613 15.0128C6.47842 14.5168 6.57906 14.0262 6.77225 13.5694C6.96543 13.1126 7.24731 12.6987 7.60157 12.3516L13.9063 5.91469C14.115 5.70539 14.3629 5.53926 14.6359 5.42578C14.9088 5.3123 15.2014 5.25369 15.497 5.2533C15.7926 5.25291 16.0854 5.31074 16.3586 5.4235C16.6319 5.53626 16.8802 5.70173 17.0895 5.91047C17.2988 6.11921 17.465 6.36713 17.5784 6.64007C17.6919 6.91302 17.7505 7.20564 17.7509 7.50124C17.7513 7.79683 17.6935 8.08961 17.5807 8.36285C17.468 8.6361 17.3025 8.88446 17.0938 9.09375L10.7853 15.525C10.717 15.598 10.6348 15.6567 10.5435 15.6974C10.4522 15.7382 10.3537 15.7604 10.2537 15.7625C10.1538 15.7647 10.0544 15.7468 9.96143 15.71C9.86847 15.6732 9.7838 15.6182 9.71242 15.5481C9.64103 15.4781 9.58437 15.3946 9.54575 15.3023C9.50714 15.2101 9.48736 15.1111 9.48757 15.0111C9.48778 14.9111 9.50798 14.8122 9.54699 14.7201C9.58599 14.628 9.64301 14.5447 9.71469 14.475L16.025 8.03531C16.0958 7.96595 16.1522 7.88323 16.1908 7.79195C16.2295 7.70067 16.2496 7.60264 16.2501 7.50352C16.2507 7.4044 16.2315 7.30615 16.1939 7.21447C16.1562 7.12279 16.1007 7.03948 16.0306 6.96937Z" fill="#0946F1"/>
</g>
<defs>
<clipPath id="clip0_1635_8622">
<rect width="24" height="24" fill="white" transform="translate(0.5)"/>
</clipPath>
</defs>
</svg>
