<svg width="32" height="32" viewBox="0 0 32 32" fill="none" xmlns="http://www.w3.org/2000/svg">
<g clip-path="url(#clip0_913_15722)">
<rect width="32" height="32" fill="white" fill-opacity="0.01"/>
<path fill-rule="evenodd" clip-rule="evenodd" d="M4 0H28C29.0609 0 30.0783 0.421427 30.8284 1.17157C31.5786 1.92172 32 2.93913 32 4V28C32 29.0609 31.5786 30.0783 30.8284 30.8284C30.0783 31.5786 29.0609 32 28 32H4C2.93913 32 1.92172 31.5786 1.17157 30.8284C0.421427 30.0783 0 29.0609 0 28V4C0 2.93913 0.421427 1.92172 1.17157 1.17157C1.92172 0.421427 2.93913 0 4 0V0ZM6.46 16.226H7.106C8.594 16.226 8.71 15.798 8.71 15.192C8.71 14.5 8.352 14.164 7.62 14.164H6.46V16.224V16.226ZM14.848 19.138H15.734C16.722 19.138 17.734 18.844 17.734 16.664C17.734 14.464 16.666 14.184 15.734 14.184H14.848V19.138ZM5.95 21.32H4.51C4.37456 21.3195 4.24484 21.2653 4.14925 21.1693C4.05367 21.0734 4 20.9434 4 20.808V12.51C4 12.23 4.228 12 4.51 12H7.836C9.814 12 11.196 13.312 11.196 15.192C11.196 17.098 9.842 18.378 7.83 18.378H6.46V20.808C6.46 20.9438 6.40606 21.074 6.31004 21.17C6.21402 21.2661 6.08379 21.32 5.948 21.32H5.95ZM15.886 21.32H12.896C12.7606 21.3195 12.6308 21.2653 12.5353 21.1693C12.4397 21.0734 12.386 20.9434 12.386 20.808V12.51C12.386 12.23 12.614 12 12.896 12H15.886C18.694 12 20.242 13.65 20.242 16.646C20.242 19.66 18.694 21.32 15.886 21.32ZM23.586 21.32H22.146C22.0102 21.32 21.88 21.2661 21.784 21.17C21.6879 21.074 21.634 20.9438 21.634 20.808V12.51C21.634 12.23 21.862 12 22.144 12H27.49C27.77 12 28 12.23 28 12.51V13.684C27.9995 13.8191 27.9456 13.9485 27.85 14.044C27.7545 14.1396 27.6251 14.1935 27.49 14.194H24.096V15.714H27.152C27.434 15.714 27.662 15.944 27.662 16.226V17.38C27.662 17.66 27.434 17.892 27.152 17.892H24.096V20.808C24.096 20.9434 24.0423 21.0734 23.9467 21.1693C23.8512 21.2653 23.7214 21.3195 23.586 21.32Z" fill="#FF5630"/>
</g>
<defs>
<clipPath id="clip0_913_15722">
<rect width="32" height="32" fill="white"/>
</clipPath>
</defs>
</svg>
